<svg width="101" height="101" viewBox="0 0 101 101" fill="none" xmlns="http://www.w3.org/2000/svg">
<path d="M8.63952 57.0077L1.05093 43.0758C0.948028 42.8868 0.947682 42.6541 1.05007 42.465L8.43342 28.8146L1.01437 15.1939C0.911614 15.0052 0.911125 14.7723 1.01351 14.5832L8.56222 0.627154C8.6646 0.438067 8.85389 0.321416 9.05903 0.320985L24.196 0.296388C24.4012 0.295956 24.591 0.412282 24.6937 0.600937L32.1128 14.2216L46.9183 14.1977C47.1235 14.1972 47.3132 14.3136 47.416 14.5022L55.0046 28.4342C55.1075 28.6231 55.1078 28.8558 55.0055 29.0449L47.4567 43.0009C47.3542 43.1897 47.1649 43.3064 46.9599 43.3071L32.1544 43.331L24.771 56.9815C24.6685 57.1703 24.4792 57.287 24.2742 57.2877L9.13719 57.3123C8.9323 57.3125 8.74242 57.1966 8.63952 57.0077ZM2.21063 42.7683L9.4669 56.0902L23.9409 56.0666L31.159 42.7219L23.9061 29.4061L9.42552 29.4299L2.21063 42.7683ZM2.17421 14.8867L9.42704 28.2022L23.901 28.1786L31.1191 14.834L23.8663 1.51845L9.39235 1.54206L2.17421 14.8867ZM24.8997 28.7938L32.1526 42.1096L46.6266 42.086L53.8447 28.7413L46.5885 15.4195L32.1212 15.4432L24.8997 28.7938ZM4.84702 43.0102C4.74757 42.8276 4.74004 42.5951 4.84587 42.3989L10.5505 31.8522C10.6529 31.6631 10.8421 31.5464 11.0473 31.546L22.4868 31.5273C22.8038 31.5271 23.0612 31.7987 23.0618 32.1371C23.0624 32.4745 22.8057 32.7481 22.4885 32.7488L11.3803 32.7665L5.84121 43.008C5.68293 43.3004 5.33207 43.4012 5.05722 43.2328C4.96668 43.1775 4.89567 43.0995 4.84702 43.0102ZM4.53227 15.1889C4.43282 15.0063 4.42528 14.7738 4.53111 14.5777L10.3255 3.86441C10.4279 3.67533 10.6172 3.55868 10.8223 3.55824L22.442 3.53966C22.6472 3.53923 22.8369 3.65556 22.9397 3.84421L28.7648 14.5386C28.9237 14.8303 28.8301 15.2042 28.5559 15.3732C28.2816 15.5423 27.9301 15.4427 27.7712 15.151L22.1123 4.76173L11.1556 4.77932L5.52646 15.1868C5.36818 15.4791 5.01732 15.58 4.74247 15.4116C4.65193 15.3562 4.58105 15.2785 4.53227 15.1889ZM33.1385 18.542C33.0897 18.4524 33.0616 18.3483 33.0617 18.2371C33.0611 17.8997 33.3178 17.6261 33.635 17.6254L45.0745 17.6068C45.2796 17.6063 45.4694 17.7227 45.5721 17.9113L51.3069 28.4398C51.4658 28.7315 51.3722 29.1054 51.0979 29.2744C50.8237 29.4434 50.4722 29.3438 50.3133 29.0521L44.7448 18.8288L33.6367 18.8469C33.424 18.8474 33.238 18.7245 33.1385 18.542Z" fill="black" fill-opacity="0.25"/>
<path d="M46.9368 100.296L31.7995 100.247C31.5942 100.246 31.4051 100.13 31.3031 99.9402L23.9396 86.2776L9.14048 86.2295C8.93551 86.2288 8.74608 86.1118 8.64413 85.9225L1.11585 71.954C1.0139 71.7646 1.01457 71.5319 1.1176 71.3433L8.72604 57.424C8.82907 57.2353 9.01917 57.1196 9.22415 57.1202L24.0233 57.1684L31.4652 43.5539C31.5682 43.3652 31.7583 43.2495 31.9633 43.2502L47.1006 43.2994C47.3058 43.3001 47.495 43.417 47.5969 43.6064L55.1252 57.5749C55.2269 57.7642 55.2262 57.9969 55.1235 58.1856L47.6815 71.8L55.0451 85.4626C55.1467 85.652 55.1461 85.8847 55.0433 86.0734L47.4349 99.9926C47.3318 100.181 47.142 100.297 46.9368 100.296ZM32.1343 99.0268L46.6087 99.0738L53.8838 85.7642L46.6853 72.4075L32.2175 72.3605L24.9392 85.6762L32.1343 99.0268ZM9.47557 85.0091L23.9431 85.0561L31.2182 71.7465L24.0198 58.3898L9.55221 58.3428L2.27711 71.6524L9.47557 85.0091ZM32.221 71.139L46.6888 71.1861L53.964 57.8765L46.7655 44.5198L32.2911 44.4727L25.0194 57.7762L32.221 71.139ZM33.6593 96.7265C33.4609 96.7259 33.2683 96.6156 33.1624 96.4195L27.4731 85.8634C27.3711 85.674 27.3718 85.4413 27.4748 85.2527L33.2247 74.7334C33.3843 74.442 33.7345 74.3424 34.0096 74.5124C34.2839 74.6819 34.3767 75.0557 34.2174 75.3474L28.6338 85.5618L34.1586 95.812C34.3162 96.1048 34.2212 96.4779 33.946 96.6456C33.8554 96.7009 33.7563 96.7268 33.6593 96.7265ZM10.9093 82.995C10.711 82.9943 10.5183 82.8841 10.4124 82.688L4.63318 71.9654C4.53124 71.7761 4.53191 71.5434 4.63494 71.3547L10.4757 60.6699C10.5787 60.4812 10.7688 60.3655 10.9738 60.3662L22.5935 60.404C22.9104 60.405 23.1668 60.6794 23.1659 61.0166C23.1649 61.3537 22.9069 61.6265 22.59 61.6254L11.3019 61.5887L5.79445 71.6638L11.4086 82.0805C11.5662 82.3732 11.4713 82.7464 11.1961 82.914C11.1055 82.9693 11.0066 82.9953 10.9093 82.995ZM28.0484 58.4032C27.9511 58.4029 27.8524 58.3763 27.7621 58.3201C27.4879 58.1507 27.3951 57.7769 27.5544 57.4852L33.3042 46.966C33.4072 46.7773 33.5973 46.6616 33.8023 46.6622L45.2417 46.6994C45.5586 46.7004 45.8151 46.9749 45.8141 47.312C45.8131 47.6491 45.5551 47.9219 45.2382 47.9209L34.1304 47.8848L28.5471 58.0992C28.4403 58.2949 28.2468 58.4039 28.0484 58.4032Z" fill="black" fill-opacity="0.25"/>
<path d="M100.851 32.3087L92.8672 45.9887C92.759 46.1742 92.5661 46.2841 92.3611 46.277L77.5631 45.774L69.758 59.1484C69.6499 59.3337 69.4568 59.4438 69.2518 59.4367L54.1225 58.9224C53.9175 58.9153 53.7316 58.7926 53.6347 58.6003L46.4885 44.4065C46.3916 44.2142 46.3988 43.9814 46.5069 43.7961L54.312 30.4218L47.3224 16.5387C47.2254 16.3464 47.2326 16.1136 47.3407 15.9283L55.3242 2.24832C55.4324 2.06282 55.6253 1.95294 55.8303 1.96001L70.9596 2.47433C71.1645 2.48166 71.3504 2.60438 71.4474 2.79643L78.437 16.6795L93.2351 17.1824C93.4399 17.1898 93.6258 17.3125 93.7229 17.5045L100.869 31.6983C100.966 31.8905 100.959 32.1232 100.851 32.3087ZM92.0663 45.0451L99.7002 31.9642L92.867 18.3921L78.4004 17.9003L70.77 30.9752L77.6064 44.5533L92.0663 45.0451ZM68.9572 58.2045L76.5874 45.1298L69.7542 31.5578L55.2876 31.066L47.6574 44.1407L54.4906 57.7127L68.9572 58.2045ZM69.7944 30.331L77.4247 17.2561L70.5915 3.68405L56.1249 3.19218L48.4911 16.2731L55.3212 29.8388L69.7944 30.331ZM91.0258 42.4571C90.9212 42.6364 90.7319 42.7529 90.5194 42.746L79.086 42.3573C78.8809 42.3503 78.6951 42.2276 78.5982 42.0352L73.1975 31.3086C73.0481 31.0112 73.1522 30.6418 73.4326 30.4819C73.7122 30.3226 74.06 30.4347 74.2098 30.732L79.4538 41.1481L90.556 41.5251C90.873 41.5361 91.1218 41.8179 91.1116 42.155C91.1083 42.2661 91.077 42.3694 91.0258 42.4571ZM68.0978 55.8494C67.9932 56.0286 67.8039 56.1452 67.5913 56.1382L55.9776 55.7437C55.7725 55.7366 55.5867 55.6139 55.4897 55.4216L50.0044 44.5258C49.9074 44.3335 49.9146 44.1006 50.0227 43.9154L56.1509 33.4144C56.3181 33.128 56.6723 33.0398 56.9416 33.2176C57.2109 33.3954 57.2937 33.7722 57.1266 34.0586L51.1732 44.2599L56.3456 54.534L67.628 54.9174C67.945 54.9283 68.1938 55.2101 68.1835 55.5473C68.1802 55.6583 68.1491 55.7614 68.0978 55.8494ZM57.4126 27.4253C57.3612 27.5133 57.2882 27.5887 57.1958 27.6409C56.9163 27.8003 56.5685 27.6882 56.4187 27.3909L51.018 16.6643C50.9211 16.4719 50.9282 16.2391 51.0364 16.0538L57.0695 5.71576C57.2367 5.42933 57.5909 5.34117 57.8602 5.51897C58.1294 5.69677 58.2123 6.07354 58.0452 6.35996L52.1869 16.3984L57.431 26.8142C57.5315 27.0136 57.5172 27.2461 57.4126 27.4253Z" fill="black" fill-opacity="0.25"/>
</svg>
